PathFileType	4	(X/Y/Z)	s03c0103.trc
DataRate	CameraRate	NumFrames	NumMarkers	Units	OrigDataRate	OrigDataStartFrame	OrigNumFrames
200	200	5	50	mm	200	1250	2000
Frame#	Time	racr			lacr			c7			jug			rlel			rdr			llel			ldr			s2			lic			ric			lasi			rasi			rpsi			lpsi			rgt			lgt			rth1			rth2			rth3			rth4			rlfc			rmfc			rsh1			rsh2			rsh3			rsh4			rlmal			rcal			rtoe			rmt5			rmt1			lth1			lth2			lth4			lth3			llfc			lmfc			lsh1			lsh2			lsh3			lsh4			llmal			lcal			ltoe			lmt1			lmt5			SBIKE			LBIKE			RBIKE			
		X1	Y1	Z1	X2	Y2	Z2	X3	Y3	Z3	X4	Y4	Z4	X5	Y5	Z5	X6	Y6	Z6	X7	Y7	Z7	X8	Y8	Z8	X9	Y9	Z9	X10	Y10	Z10	X11	Y11	Z11	X12	Y12	Z12	X13	Y13	Z13	X14	Y14	Z14	X15	Y15	Z15	X16	Y16	Z16	X17	Y17	Z17	X18	Y18	Z18	X19	Y19	Z19	X20	Y20	Z20	X21	Y21	Z21	X22	Y22	Z22	X23	Y23	Z23	X24	Y24	Z24	X25	Y25	Z25	X26	Y26	Z26	X27	Y27	Z27	X28	Y28	Z28	X29	Y29	Z29	X30	Y30	Z30	X31	Y31	Z31	X32	Y32	Z32	X33	Y33	Z33	X34	Y34	Z34	X35	Y35	Z35	X36	Y36	Z36	X37	Y37	Z37	X38	Y38	Z38	X39	Y39	Z39	X40	Y40	Z40	X41	Y41	Z41	X42	Y42	Z42	X43	Y43	Z43	X44	Y44	Z44	X45	Y45	Z45	X46	Y46	Z46	X47	Y47	Z47	X48	Y48	Z48	X49	Y49	Z49	X50	Y50	Z50	
1250	6.2500	485.688505	1380.549671	-159.212935	386.684446	1392.137746	-447.550360	379.365205	1479.850619	-284.692589	368.914092	1303.723043	-291.153418	539.864438	1145.082498	-11.885836	741.853878	936.240191	-51.860042	474.161207	1144.735157	-503.727222	719.726025	952.204055	-438.490999	-129.308986	1207.643183	-160.411997	-10.733546	1269.021285	-371.125726	69.425950	1236.553690	-8.565699	33.884368	1190.976724	-335.740620	86.731074	1167.813336	-59.351361	-91.694953	1255.752263	-116.519324	-107.574094	1264.658110	-192.933313	3.287251	1108.946257	0.784551	-36.214770	1186.745468	-386.155914	89.147432	970.996365	10.670342	162.673907	920.429686	10.978770	202.430482	844.609375	1.010779	189.597248	944.531973	2.242214	263.254776	733.467629	-32.685126	270.773307	722.664579	-152.255324	200.970131	577.964199	-12.290277	191.463918	490.866840	-30.773064	139.678054	419.558476	-35.644105	220.160431	483.811619	-55.592825	83.051842	302.255629	-64.836553	14.805660	286.566629	-102.507404	292.826697	148.159719	-116.609673	179.380517	180.424186	-42.452103	208.961204	189.758682	-155.398418	89.377954	1117.979755	-435.983995	174.018540	1109.195334	-450.874246	188.901708	1140.624664	-438.168287	244.717823	1056.478217	-466.070919	380.651323	1012.983675	-468.508165	400.395296	996.323923	-337.453983	307.951043	854.141910	-474.757626	296.803649	771.116642	-453.120042	241.428116	700.746536	-442.024477	328.772153	760.859564	-434.596903	190.109828	583.069494	-415.872654	123.439761	541.309276	-364.449177	430.397076	505.357352	-362.524727	336.283698	510.921487	-319.190036	310.284913	490.996543	-433.748262	-220.447737	944.067113	-232.106698	-14.336260	81.802047	-436.727214	-14.338169	80.661014	-36.293362	
1251	6.2550	485.646244	1379.730648	-159.729714	386.333901	1392.338376	-447.672591	379.334591	1479.594824	-284.552422	368.594045	1303.510366	-291.650561	539.986922	1144.386948	-12.262932	741.939214	935.879318	-51.757662	473.604333	1144.860017	-503.335172	719.545227	952.559913	-438.298898	-131.158224	1208.167634	-160.505613	-11.093725	1269.368176	-371.771068	68.819917	1236.286879	-9.070611	33.567771	1190.666425	-336.775545	85.983151	1167.868571	-60.148758	-92.205094	1255.830166	-117.140966	-107.707813	1264.495887	-193.622479	3.222032	1109.414076	0.396262	-35.401721	1185.916349	-388.820745	90.377223	972.801159	9.764345	164.487364	923.140746	9.926917	205.627683	847.768420	0.548929	191.064501	947.614584	1.490306	266.615824	736.890645	-32.211016	274.673898	725.961057	-151.971825	201.097384	582.520423	-11.968263	189.418867	495.676058	-30.557603	135.909203	425.722358	-35.434228	217.923915	487.966544	-55.253535	76.614045	309.965045	-64.281156	8.237395	295.115859	-102.773780	283.480442	151.048481	-116.328379	170.560104	185.615654	-42.723239	200.541314	194.209844	-155.531238	89.151938	1114.365504	-435.785849	173.666740	1104.933076	-451.242674	188.754474	1136.384681	-438.939811	243.966073	1051.468061	-465.712634	379.756344	1006.751944	-467.346845	398.944150	990.369686	-336.699649	308.919276	846.605036	-474.520427	299.127533	763.362990	-453.102322	244.782655	692.120401	-442.193798	331.191073	753.585742	-434.418571	195.783691	573.434710	-416.918848	129.863759	529.466341	-365.333804	437.798283	503.943653	-362.660717	343.742047	506.277023	-320.051984	318.235443	484.110426	-432.541467	-220.469487	944.069791	-232.058370	-14.350096	81.843503	-436.673059	-14.348951	80.652610	-36.273359	
1252	6.2600	485.563219	1379.089923	-159.989686	386.152103	1392.567847	-447.626101	379.323080	1479.370260	-284.332668	368.404741	1303.319853	-291.957732	540.163842	1143.953437	-12.547661	741.955851	935.593213	-51.688228	473.070709	1144.890953	-502.802263	719.407468	952.728892	-438.113585	-130.464898	1207.558167	-162.358699	-11.239915	1269.364706	-372.599805	68.041882	1235.923457	-9.812709	33.314797	1190.246581	-337.964841	85.159511	1167.985842	-60.975635	-92.759653	1256.117611	-117.999682	-107.849381	1264.235342	-194.549237	3.075624	1109.826170	-0.065959	-35.631888	1184.207936	-389.450642	91.669033	974.349571	8.467320	166.428154	925.934874	8.776388	208.535344	851.093871	-0.197403	192.725667	950.474990	0.149868	270.153055	740.541851	-31.706746	278.759256	729.377454	-151.674060	201.448213	587.248093	-11.736976	188.267951	501.083948	-29.839597	132.491705	432.109299	-35.330295	216.739764	492.764703	-54.266978	70.767283	317.835815	-64.201562	2.135311	304.081389	-103.063598	274.431031	154.365300	-116.116709	162.209932	191.380447	-42.722223	192.228979	199.028529	-155.842781	89.036728	1110.251065	-436.073161	173.413072	1099.859309	-451.658406	188.775746	1131.382306	-439.933482	243.210135	1045.597586	-465.399236	378.619546	999.601523	-466.718144	397.432376	983.448277	-336.415151	309.813092	838.036049	-474.358446	301.242315	754.530266	-453.055782	248.015661	682.483173	-442.295170	333.370998	745.304404	-434.249618	201.229517	562.853877	-417.480617	135.981911	516.951552	-366.330661	444.753361	501.717614	-362.861384	350.596343	500.992836	-320.993962	325.837541	478.348888	-435.015272	-220.482797	944.060072	-232.052066	-14.367616	81.795429	-436.693698	-14.358472	80.653147	-36.252474	
1253	6.2650	485.351648	1378.609001	-160.034252	386.187184	1392.866923	-447.510546	379.331482	1479.167088	-284.010314	368.354454	1303.143851	-292.135304	540.398397	1143.498977	-12.727408	741.931751	935.369033	-51.646850	472.775149	1144.881176	-502.212069	719.296794	952.769743	-437.880882	-130.769767	1207.269999	-163.224484	-11.190728	1269.021834	-373.632171	67.250347	1235.517533	-10.656390	33.129467	1189.721014	-339.303433	84.455298	1168.033184	-61.783880	-93.281466	1255.961402	-119.013147	-107.904537	1263.835514	-195.673226	2.889901	1110.175493	-0.614091	-35.648805	1182.257297	-390.299275	93.153250	976.254551	7.302004	168.424618	928.878549	7.504049	211.499742	854.609250	-1.093333	194.315881	953.804513	-0.927514	273.916970	744.366562	-31.287193	282.615620	732.872199	-151.535043	202.107495	592.243318	-11.558195	186.866558	506.415887	-29.745167	129.512904	438.885117	-35.367258	213.917332	497.479959	-54.840184	65.295695	325.960897	-64.194531	-3.588384	313.361944	-103.481755	265.793924	158.258449	-115.947428	154.255166	197.578636	-42.772645	184.499960	204.369147	-155.909060	88.954152	1105.996740	-437.132119	173.259307	1094.238594	-452.100573	189.230325	1126.157799	-442.417890	242.419494	1038.963621	-465.110597	376.990892	991.445308	-466.097039	395.916353	975.617922	-336.353698	310.550209	828.430549	-474.403716	303.260209	744.844344	-453.032333	251.191796	671.851547	-442.513461	335.388472	736.076752	-433.960795	206.475647	551.461569	-417.920977	141.967765	503.682092	-367.278385	451.252570	498.854675	-363.074206	357.153567	494.618651	-321.204750	333.320768	471.612203	-436.661755	-220.480205	944.019995	-232.073598	-14.400187	81.720298	-436.646043	-14.367014	80.641397	-36.246455	
1254	6.2700	485.110235	1378.327727	-159.889503	386.419829	1393.170061	-447.275388	379.354688	1478.954533	-283.603463	368.514354	1302.944136	-292.152802	540.578451	1143.236476	-12.717724	741.817734	935.268073	-51.606854	472.612193	1144.791070	-501.524290	719.243909	952.700919	-437.631211	-131.093705	1206.919787	-164.538296	-10.937864	1268.453059	-374.822126	66.445804	1235.005892	-11.648457	33.015789	1189.093422	-340.786431	83.681876	1168.068503	-62.715285	-93.865944	1255.694383	-120.186966	-108.022418	1263.335380	-197.022482	2.671716	1110.454498	-1.310794	-35.542571	1180.127112	-391.260357	94.612453	978.153579	6.189954	170.533707	931.861480	6.134547	214.671345	858.139680	-2.083082	196.046552	956.994069	-2.187405	277.855420	748.227913	-30.881425	286.433685	736.460544	-151.383590	203.046583	597.491882	-11.431023	185.847360	511.978710	-29.705793	126.948896	445.825427	-35.465604	212.686608	502.279983	-54.806531	60.295398	334.419051	-64.511892	-9.046821	323.634436	-103.350198	257.412838	162.682031	-115.875701	146.695249	204.429134	-42.841991	177.149990	210.619925	-155.952195	89.018336	1101.376721	-438.039258	173.144995	1088.159683	-452.748720	189.560267	1120.097440	-443.592377	241.502672	1031.748977	-464.902911	375.026559	982.222406	-465.489126	394.398726	967.029047	-336.313691	311.000405	817.964729	-474.682993	305.163282	734.300977	-453.061298	254.162378	660.400830	-442.863136	337.210086	726.243817	-433.770196	211.697309	539.444105	-418.489056	148.145142	489.810586	-367.827010	457.287013	495.297229	-363.457983	363.466831	487.754236	-321.899727	340.405911	463.620441	-437.348171	-220.477200	943.968007	-232.186840	-14.405399	81.696026	-436.614566	-14.362781	80.632803	-36.242792	
